<?xml version="1.0" encoding="UTF-8"?>
<!DOCTYPE svg PUBLIC "-//W3C//DTD SVG 1.1//EN" "http://www.w3.org/Graphics/SVG/1.1/DTD/svg11.dtd">
<!-- Creator: CorelDRAW 2020 (64 Bit) -->
<svg xmlns="http://www.w3.org/2000/svg" xml:space="preserve" width="96.3945mm" height="37.9506mm" version="1.1" shape-rendering="geometricPrecision" text-rendering="geometricPrecision" image-rendering="optimizeQuality" fill-rule="evenodd" clip-rule="evenodd"
viewBox="0 0 9638380 3794639"
 xmlns:xlink="http://www.w3.org/1999/xlink"
 xmlns:xodm="http://www.corel.com/coreldraw/odm/2003">
 <g id="Camada_x0020_1">
  <metadata id="CorelCorpID_0Corel-Layer"/>
  <rect fill="none" y="-4" width="9638380" height="3794639"/>
  <g id="_2740454945648">
   <path fill="#669999" fill-rule="nonzero" d="M1777433 3052801c-86140,0 -170851,-24407 -254112,-73222 -83271,-48815 -189029,-123946 -317285,-225395 -95709,-76572 -177540,-138305 -245493,-185199 -67952,-46905 -141654,-86620 -221095,-119167 -79431,-32536 -160312,-48805 -242623,-48805 -28707,0 -50724,950 -66033,2870l427823 -1989809c-128256,51684 -227315,130635 -297187,236874 -69862,106238 -104798,235934 -104798,389067 0,70822 6699,120117 20098,147874 13399,27757 20098,43545 20098,47375 -103369,0 -180410,-21538 -231134,-64603 -50724,-43075 -76092,-114377 -76092,-213916 0,-122506 50244,-241663 150743,-357470 100499,-115817 229225,-209607 386187,-281389 156963,-71782 313935,-107678 470898,-107678 26797,0 65083,1920 114847,5739l-442181 2061601c53604,13399 108638,33016 165102,58863 56474,25837 124906,60773 205297,104798 124426,66993 230664,118197 318715,153613 88060,35416 179940,53124 275649,53124 86140,0 166532,-15318 241183,-45945 -15308,139734 -49285,249802 -101929,330203 -52634,80391 -118197,120597 -196678,120597z"/>
   <path id="1" fill="#669999" fill-rule="nonzero" d="M1544849 2352199c-91880,0 -166052,-28717 -222525,-86140 -56474,-57424 -84701,-143564 -84701,-258411 0,-47865 7649,-110068 22967,-186639l195248 -921688 413464 0 -206727 976242c-5749,28717 -8619,55514 -8619,80401 0,78481 28717,117717 86140,117717 53594,0 99539,-22488 137825,-67473 38286,-44985 68912,-106718 91880,-185199l195248 -921688 413464 0 -206727 976242c-7659,28717 -11489,59343 -11489,91880 0,38286 9089,65563 27277,81831 18188,16278 48335,24407 90450,24407 53594,0 100019,-22967 139255,-68912 39246,-45935 70352,-107188 93320,-183760l120597 0c-70832,206737 -158402,346951 -262731,420643 -104318,73702 -209127,110548 -314405,110548 -82311,0 -147874,-22967 -196688,-68912 -48805,-45945 -78001,-113897 -87570,-203857 -65083,105278 -133515,177060 -205297,215346 -71782,38286 -145004,57424 -219656,57424z"/>
   <path id="2" fill="#669999" fill-rule="nonzero" d="M3121194 2352199c-141644,0 -251712,-36846 -330193,-110548 -78491,-73692 -117727,-189029 -117727,-345992 0,-132075 26317,-277559 78961,-436432 52634,-158882 136865,-296227 252672,-412034 115807,-115807 262721,-173711 440741,-173711 114857,0 196688,24877 245503,74652 48815,49764 73212,112937 73212,189499 0,67003 -14348,118687 -43065,155053 -28717,36376 -65083,54554 -109108,54554 -32546,0 -66043,-11479 -100499,-34456 22967,-63163 34456,-119637 34456,-169401 0,-36376 -6699,-65083 -20098,-86140 -13399,-21058 -33496,-31586 -60293,-31586 -57434,0 -114857,46895 -172281,140694 -57424,93800 -104328,207687 -140694,341682 -36366,133995 -54554,254592 -54554,361790 0,93790 16268,157443 48815,190939 32536,33496 85181,50244 157922,50244 103359,0 191899,-23927 265591,-71782 73702,-47855 154573,-120587 242623,-218216l97629 0c-212476,354131 -475677,531191 -789612,531191z"/>
   <path id="3" fill="#669999" fill-rule="nonzero" d="M4223771 2352199c-141644,0 -251712,-36846 -330193,-110548 -78491,-73692 -117727,-189029 -117727,-345992 0,-132075 25837,-277559 77521,-436432 51684,-158882 135915,-296227 252682,-412034 116757,-115807 265111,-173711 445051,-173711 210557,0 315835,91880 315835,275639 0,107198 -30627,205777 -91880,295747 -61253,89970 -142604,162222 -244053,216786 -101459,54554 -209607,85660 -324464,93310 -3830,57434 -5739,95709 -5739,114857 0,93790 16268,157443 48815,190939 32536,33496 85181,50244 157922,50244 103359,0 191899,-23927 265591,-71782 73702,-47855 154573,-120587 242623,-218216l97629 0c-212476,354131 -475677,531191 -789612,531191zm5739 -735058c70832,-3820 138305,-28707 202428,-74652 64133,-45935 115817,-104318 155053,-175151 39246,-70822 58863,-145474 58863,-223955 0,-78481 -23927,-117727 -71782,-117727 -68912,0 -136385,60303 -202428,180890 -66043,120597 -113417,257461 -142134,410594z"/>
   <path id="4" fill="#669999" fill-rule="nonzero" d="M5952289 2352199c-116757,0 -202418,-31107 -256981,-93320 -54554,-62213 -81831,-139255 -81831,-231134 0,-40206 4789,-85660 14358,-136395 9569,-50724 19618,-100009 30147,-147864 10529,-47855 17708,-78481 21538,-91890 15318,-66993 29667,-133035 43075,-198118 13399,-65083 20098,-117717 20098,-157922 0,-97619 -34456,-146434 -103369,-146434 -49774,0 -93800,24407 -132085,73222 -38276,48805 -68912,112458 -91880,190939l-195248 921688 -413464 0 304356 -1435651 413464 0 -31576 149303c95709,-107188 207687,-160792 335943,-160792 97619,0 175141,26807 232574,80401 57424,53594 86140,134945 86140,244063 0,55504 -6709,117237 -20108,185199 -13399,67952 -32536,150743 -57424,248362 -15308,59343 -29187,117247 -41635,173711 -12439,56474 -18658,100979 -18658,133515 0,38286 8609,67962 25837,89010 17228,21058 46895,31586 89010,31586 57424,0 103369,-20578 137825,-61733 34456,-41155 68912,-104798 103369,-190939l120597 0c-70832,210567 -152663,351731 -245503,423513 -92840,71782 -189029,107678 -288568,107678z"/>
   <path id="5" fill="#669999" fill-rule="nonzero" d="M6710315 2352199c-109108,0 -200028,-37326 -272770,-111978 -72742,-74662 -109108,-191419 -109108,-350301 0,-141654 28237,-290478 84701,-446490 56474,-156003 140694,-288088 252672,-396236 111988,-108158 245503,-162232 400556,-162232 78481,0 136865,13399 175141,40196 38286,26807 57434,62213 57434,106238l0 20108 31576 -152183 413474 0 -206737 976242c-7659,28717 -11489,59343 -11489,91880 0,38286 9099,65563 27277,81831 18188,16278 48335,24407 90450,24407 26797,0 47855,-3830 63173,-11479 -42115,107188 -82311,182320 -120597,225395 -38286,43065 -93800,64603 -166542,64603 -78481,0 -142124,-23447 -190939,-70342 -48815,-46905 -78961,-112468 -90440,-196688 -116767,178020 -259381,267030 -427833,267030zm186639 -278519c47855,0 95229,-22488 142124,-67473 46905,-44985 78961,-106718 96189,-185199l137825 -648918c0,-24877 -9569,-49285 -28707,-73212 -19148,-23927 -48815,-35896 -89010,-35896 -76572,0 -145484,44505 -206737,133515 -61253,89010 -109108,196208 -143564,321584 -34456,125386 -51684,235934 -51684,331643 0,95709 13878,156963 41635,183760 27757,26797 61733,40196 101929,40196z"/>
   <polygon fill="#669999" fill-rule="nonzero" points="2781251,3403602 2480615,3403602 2480615,2865622 2781251,2865622 2781251,2925145 2548427,2925145 2548427,3093167 2767683,3093167 2767683,3151940 2548427,3151940 2548427,3344079 2781251,3344079 "/>
   <path id="1" fill="#669999" fill-rule="nonzero" d="M2979409 3403602l-152953 -403865 70822 0 85900 238104c4020,11049 8289,23357 12809,36916 4519,13568 8539,26497 12059,38806 3510,12309 6029,22727 7529,31267l3020 0c2010,-8539 4899,-19088 8659,-31646 3770,-12559 8039,-25617 12809,-39176 4779,-13568 8919,-25617 12439,-36166l85890 -238104 70832 0 -153713 403865 -76102 0z"/>
   <path id="2" fill="#669999" fill-rule="nonzero" d="M3429239 2992208c34656,0 64423,7529 89290,22597 24857,15068 43945,36296 57264,63673 13309,27377 19968,59393 19968,96069l0 39936 -276529 0c1000,45705 12679,80491 35036,104348 22358,23867 53624,35796 93810,35796 25617,0 48345,-2390 68192,-7159 19838,-4769 40306,-11679 61403,-20718l0 58014c-20598,9039 -40935,15698 -61033,19968 -20088,4270 -43955,6409 -71582,6409 -38176,0 -71952,-7789 -101339,-23357 -29387,-15578 -52244,-38806 -68562,-69702 -16328,-30897 -24487,-68692 -24487,-113397 0,-44205 7409,-82131 22228,-113777 14818,-31646 35656,-56004 62533,-73082 26877,-17078 58144,-25617 93810,-25617zm-750 54244c-31646,0 -56644,10179 -74972,30517 -18338,20348 -29267,48605 -32776,84771l205697 0c-500,-34156 -8539,-61913 -24117,-83261 -15568,-21348 -40186,-32026 -73832,-32026z"/>
   <path id="3" fill="#669999" fill-rule="nonzero" d="M3892628 2992208c48225,0 84641,11679 109258,35036 24607,23357 36916,61153 36916,113397l0 262961 -65553 0 0 -258441c0,-64803 -30137,-97199 -90420,-97199 -44705,0 -75592,12559 -92670,37676 -17078,25117 -25617,61283 -25617,108498l0 209467 -66313 0 0 -403865 53504 0 9789 55004 3770 0c13059,-21098 31147,-36796 54254,-47095 23097,-10289 47465,-15438 73082,-15438z"/>
   <path id="4" fill="#669999" fill-rule="nonzero" d="M4298753 3356887c10049,0 20348,-880 30897,-2640 10549,-1760 19088,-3640 25617,-5649l0 50484c-7039,3520 -17078,6399 -30147,8659 -13059,2270 -25617,3400 -37666,3400 -21098,0 -40565,-3650 -58394,-10929 -17838,-7289 -32276,-19968 -43325,-38056 -11059,-18078 -16578,-43445 -16578,-76102l0 -235084 -57264 0 0 -31646 58014 -26367 26377 -85900 39176 0 0 92680 116787 0 0 51234 -116787 0 0 233584c0,24607 5899,42815 17708,54624 11809,11809 26997,17708 45585,17708z"/>
   <path id="5" fill="#669999" fill-rule="nonzero" d="M4787009 3200915c0,66813 -16948,118547 -50854,155223 -33906,36666 -79751,55004 -137515,55004 -35666,0 -67433,-8169 -95309,-24497 -27887,-16318 -49854,-40176 -65933,-71572 -16078,-31397 -24107,-69452 -24107,-114157 0,-66803 16828,-118297 50474,-154463 33656,-36166 79371,-54244 137135,-54244 36676,0 68942,8159 96819,24487 27887,16318 49734,39936 65553,70822 15828,30897 23737,68692 23737,113397zm-305156 0c0,47725 9419,85521 28257,113397 18838,27877 48845,41825 90040,41825 40685,0 70572,-13948 89660,-41825 19088,-27877 28637,-65673 28637,-113397 0,-47715 -9549,-85141 -28637,-112268 -19088,-27127 -49225,-40685 -90410,-40685 -41195,0 -71082,13558 -89670,40685 -18588,27127 -27877,64553 -27877,112268z"/>
   <path id="6" fill="#669999" fill-rule="nonzero" d="M5154708 3292085c0,39186 -14568,68822 -43705,88910 -29137,20098 -68312,30147 -117547,30147 -28127,0 -52364,-2270 -72712,-6789 -20338,-4519 -38296,-10799 -53864,-18838l0 -60273c16068,8039 35536,15448 58394,22228 22847,6779 46085,10169 69692,10169 33656,0 58014,-5399 73092,-16198 15068,-10799 22597,-25237 22597,-43325 0,-10049 -2760,-19088 -8289,-27127 -5519,-8029 -15438,-16068 -29757,-24107 -14318,-8039 -34786,-17078 -61413,-27127 -26117,-10049 -48475,-20088 -67053,-30137 -18588,-10049 -32906,-22108 -42955,-36166 -10039,-14068 -15068,-32146 -15068,-54254 0,-34156 13938,-60523 41815,-79111 27887,-18588 64423,-27877 109638,-27877 24607,0 47595,2380 68942,7159 21348,4769 41315,11419 59903,19958l-22607 52744c-17078,-7029 -34916,-13059 -53494,-18078 -18588,-5029 -37676,-7539 -57264,-7539 -27127,0 -47855,4400 -62163,13189 -14318,8789 -21478,20718 -21478,35786 0,11059 3270,20478 9799,28257 6529,7789 17448,15318 32776,22607 15318,7279 35786,15948 61403,25997 25617,9539 47475,19338 65553,29387 18088,10039 31896,22228 41445,36536 9539,14318 14318,32276 14318,53874z"/>
   <path id="7" fill="#669999" fill-rule="nonzero" d="M5664811 2992208c34656,0 64423,7529 89290,22597 24857,15068 43945,36296 57264,63673 13309,27377 19968,59393 19968,96069l0 39936 -276529 0c1000,45705 12679,80491 35036,104348 22358,23867 53624,35796 93810,35796 25617,0 48345,-2390 68192,-7159 19838,-4769 40306,-11679 61403,-20718l0 58014c-20598,9039 -40935,15698 -61033,19968 -20088,4270 -43955,6409 -71582,6409 -38176,0 -71952,-7789 -101339,-23357 -29387,-15578 -52244,-38806 -68562,-69702 -16328,-30897 -24487,-68692 -24487,-113397 0,-44205 7409,-82131 22228,-113777 14818,-31646 35656,-56004 62533,-73082 26877,-17078 58144,-25617 93810,-25617zm-750 54244c-31646,0 -56644,10179 -74972,30517 -18338,20348 -29267,48605 -32776,84771l205697 0c-500,-34156 -8539,-61913 -24117,-83261 -15568,-21348 -40186,-32026 -73832,-32026z"/>
   <path id="8" fill="#669999" fill-rule="nonzero" d="M6536584 3403602l-64803 -166522 -213226 0 -64053 166522 -68562 0 210217 -540240 61033 0 209467 540240 -70072 0zm-145424 -389547c-1500,-4020 -4020,-11299 -7529,-21848 -3520,-10549 -6909,-21478 -10179,-32776 -3260,-11309 -5899,-19968 -7909,-25997 -3510,15568 -7529,30767 -12049,45585 -4529,14818 -8289,26497 -11309,35036l-61033 162752 170291 0 -60283 -162752z"/>
   <path id="9" fill="#669999" fill-rule="nonzero" d="M6806324 3356887c10049,0 20348,-880 30897,-2640 10549,-1760 19088,-3640 25617,-5649l0 50484c-7039,3520 -17078,6399 -30147,8659 -13059,2270 -25617,3400 -37666,3400 -21098,0 -40565,-3650 -58394,-10929 -17838,-7289 -32276,-19968 -43325,-38056 -11059,-18078 -16578,-43445 -16578,-76102l0 -235084 -57264 0 0 -31646 58014 -26367 26377 -85900 39176 0 0 92680 116787 0 0 51234 -116787 0 0 233584c0,24607 5899,42815 17708,54624 11809,11809 26997,17708 45585,17708z"/>
   <path id="10" fill="#669999" fill-rule="nonzero" d="M6977365 2848294c10049,0 18968,3390 26747,10169 7789,6779 11679,17458 11679,32026 0,14058 -3890,24607 -11679,31646 -7779,7029 -16698,10539 -26747,10539 -11049,0 -20338,-3510 -27877,-10539 -7529,-7039 -11299,-17588 -11299,-31646 0,-14568 3770,-25247 11299,-32026 7539,-6779 16828,-10169 27877,-10169zm32406 151443l0 403865 -66313 0 0 -403865 66313 0z"/>
   <path id="11" fill="#669999" fill-rule="nonzero" d="M7226768 3403602l-152953 -403865 70822 0 85900 238104c4020,11049 8289,23357 12809,36916 4519,13568 8539,26497 12059,38806 3510,12309 6029,22727 7529,31267l3020 0c2010,-8539 4899,-19088 8659,-31646 3770,-12559 8039,-25617 12809,-39176 4779,-13568 8919,-25617 12439,-36166l85890 -238104 70832 0 -153713 403865 -76102 0z"/>
   <path id="12" fill="#669999" fill-rule="nonzero" d="M7673588 2992958c49225,0 85640,10799 109248,32396 23607,21598 35416,56014 35416,103229l0 275019 -48225 0 -12809 -57264 -3010 0c-17588,22098 -36046,38426 -55384,48975 -19338,10549 -46085,15828 -80241,15828 -36676,0 -67063,-9679 -91180,-29017 -24107,-19338 -36166,-49604 -36166,-90790 0,-40186 15828,-71202 47475,-93060 31646,-21848 80371,-33776 146174,-35786l68562 -2260 0 -24107c0,-33656 -7279,-57014 -21848,-70072 -14568,-13069 -35166,-19598 -61783,-19598 -21098,0 -41195,3140 -60283,9419 -19088,6279 -36916,13439 -53494,21478l-20348 -49734c17588,-9539 38436,-17708 62543,-24487 24107,-6779 49225,-10169 75352,-10169zm19588 215496c-50234,2010 -85021,10049 -104358,24107 -19338,14068 -29007,33906 -29007,59523 0,22607 6909,39186 20718,49734 13818,10549 31517,15818 53124,15818 34156,0 62533,-9419 85141,-28257 22607,-18828 33906,-47845 33906,-87020l0 -36166 -59523 2260z"/>
   <path id="13" fill="#669999" fill-rule="nonzero" d="M8105330 3411141c-35666,0 -67443,-7289 -95319,-21858 -27877,-14568 -49724,-37166 -65553,-67812 -15818,-30637 -23727,-69822 -23727,-117537 0,-49734 8279,-90170 24857,-121317 16578,-31137 39056,-53994 67443,-68562 28377,-14568 60653,-21848 96819,-21848 20598,0 40436,2130 59523,6399 19088,4270 34656,9419 46715,15448l-20338 55004c-12059,-4519 -26127,-8789 -42195,-12809 -16078,-4020 -31147,-6029 -45215,-6029 -79361,0 -119047,50984 -119047,152953 0,48725 9669,86020 29007,111898 19338,25867 48095,38806 86270,38806 22108,0 41575,-2270 58404,-6789 16818,-4519 32266,-10039 46335,-16578l0 58773c-13558,7039 -28507,12439 -44835,16198 -16318,3770 -36036,5659 -59143,5659zm61783 97189c0,24117 -9289,42825 -27877,56144 -18588,13309 -46465,19958 -83641,19958 -16068,0 -28627,-1250 -37666,-3760l0 -41445c4519,1010 10539,1880 18078,2640 7539,750 14818,1130 21848,1130 18088,0 31896,-2390 41445,-7159 9539,-4769 14318,-13439 14318,-25997 0,-13059 -6659,-22597 -19968,-28627 -13319,-6029 -29517,-10299 -48605,-12809l32406 -64803 43695 0 -19588 39936c18088,4020 33526,11049 46335,21098 12809,10049 19218,24607 19218,43695z"/>
   <path id="14" fill="#669999" fill-rule="nonzero" d="M8656119 3200915c0,66813 -16948,118547 -50854,155223 -33906,36666 -79751,55004 -137515,55004 -35666,0 -67433,-8169 -95309,-24497 -27887,-16318 -49854,-40176 -65933,-71572 -16078,-31397 -24107,-69452 -24107,-114157 0,-66803 16828,-118297 50474,-154463 33656,-36166 79371,-54244 137135,-54244 36676,0 68942,8159 96819,24487 27887,16318 49734,39936 65553,70822 15828,30897 23737,68692 23737,113397zm-305156 0c0,47725 9419,85521 28257,113397 18838,27877 48845,41825 90040,41825 40685,0 70572,-13948 89660,-41825 19088,-27877 28637,-65673 28637,-113397 0,-47715 -9549,-85141 -28637,-112268 -19088,-27127 -49225,-40685 -90410,-40685 -41195,0 -71082,13558 -89670,40685 -18588,27127 -27877,64553 -27877,112268zm-19588 -253922c3010,-29637 11679,-53114 25997,-70452 14308,-17328 33276,-25987 56884,-25987 15068,0 29257,3640 42565,10919 13319,7289 25997,14448 38056,21478 12059,7029 23357,10549 33906,10549 11549,0 20468,-3640 26747,-10929 6279,-7279 11179,-18208 14698,-32776l37666 0c-3010,29137 -11549,52494 -25617,70072 -14058,17588 -32896,26377 -56504,26377 -14068,0 -27757,-3520 -41065,-10549 -13319,-7029 -26127,-14188 -38426,-21478 -12309,-7279 -23987,-10919 -35046,-10919 -12049,0 -21098,3640 -27117,10919 -6029,7289 -10799,18208 -14318,32776l-38426 0z"/>
   <path id="15" fill="#669999" fill-rule="nonzero" d="M8916820 2992208c34656,0 64423,7529 89290,22597 24857,15068 43945,36296 57264,63673 13309,27377 19968,59393 19968,96069l0 39936 -276529 0c1000,45705 12679,80491 35036,104348 22358,23867 53624,35796 93810,35796 25617,0 48345,-2390 68192,-7159 19838,-4769 40306,-11679 61403,-20718l0 58014c-20598,9039 -40935,15698 -61033,19968 -20088,4270 -43955,6409 -71582,6409 -38176,0 -71952,-7789 -101339,-23357 -29387,-15578 -52244,-38806 -68562,-69702 -16328,-30897 -24487,-68692 -24487,-113397 0,-44205 7409,-82131 22228,-113777 14818,-31646 35656,-56004 62533,-73082 26877,-17078 58144,-25617 93810,-25617zm-750 54244c-31646,0 -56644,10179 -74972,30517 -18338,20348 -29267,48605 -32776,84771l205697 0c-500,-34156 -8539,-61913 -24117,-83261 -15568,-21348 -40186,-32026 -73832,-32026z"/>
   <path id="16" fill="#669999" fill-rule="nonzero" d="M9448781 3292085c0,39186 -14568,68822 -43705,88910 -29137,20098 -68312,30147 -117547,30147 -28127,0 -52364,-2270 -72712,-6789 -20338,-4519 -38296,-10799 -53864,-18838l0 -60273c16068,8039 35536,15448 58394,22228 22847,6779 46085,10169 69692,10169 33656,0 58014,-5399 73092,-16198 15068,-10799 22597,-25237 22597,-43325 0,-10049 -2760,-19088 -8289,-27127 -5519,-8029 -15438,-16068 -29757,-24107 -14318,-8039 -34786,-17078 -61413,-27127 -26117,-10049 -48475,-20088 -67053,-30137 -18588,-10049 -32906,-22108 -42955,-36166 -10039,-14068 -15068,-32146 -15068,-54254 0,-34156 13938,-60523 41815,-79111 27887,-18588 64423,-27877 109638,-27877 24607,0 47595,2380 68942,7159 21348,4769 41315,11419 59903,19958l-22607 52744c-17078,-7029 -34916,-13059 -53494,-18078 -18588,-5029 -37676,-7539 -57264,-7539 -27127,0 -47855,4400 -62163,13189 -14318,8789 -21478,20718 -21478,35786 0,11059 3270,20478 9799,28257 6529,7789 17448,15318 32776,22607 15318,7279 35786,15948 61403,25997 25617,9539 47475,19338 65553,29387 18088,10039 31896,22228 41445,36536 9539,14318 14318,32276 14318,53874z"/>
  </g>
 </g>
</svg>
