<?xml version="1.0" encoding="UTF-8"?>
<!DOCTYPE svg PUBLIC "-//W3C//DTD SVG 1.1//EN" "http://www.w3.org/Graphics/SVG/1.1/DTD/svg11.dtd">
<!-- Creator: CorelDRAW 2020 (64 Bit) -->
<svg xmlns="http://www.w3.org/2000/svg" xml:space="preserve" width="92.6021mm" height="33.746mm" version="1.1" shape-rendering="geometricPrecision" text-rendering="geometricPrecision" image-rendering="optimizeQuality" fill-rule="evenodd" clip-rule="evenodd"
viewBox="0 0 9259140 3374210"
 xmlns:xlink="http://www.w3.org/1999/xlink"
 xmlns:xodm="http://www.corel.com/coreldraw/odm/2003">
 <g id="Camada_x0020_1">
  <metadata id="CorelCorpID_0Corel-Layer"/>
  <path fill="#FFCC00" fill-rule="nonzero" d="M1587827 2842582c-86140,0 -170850,-24407 -254111,-73222 -83270,-48814 -189028,-123946 -317283,-225394 -95709,-76571 -177539,-138304 -245492,-185199 -67952,-46905 -141654,-86620 -221094,-119166 -79431,-32536 -160311,-48804 -242622,-48804 -28707,0 -50724,950 -66032,2870l427821 -1989800c-128255,51684 -227314,130635 -297186,236873 -69862,106238 -104798,235933 -104798,389065 0,70822 6699,120116 20098,147873 13398,27757 20098,43545 20098,47375 -103368,0 -180409,-21538 -231133,-64603 -50724,-43075 -76091,-114377 -76091,-213915 0,-122506 50244,-241662 150743,-357469 100498,-115817 229224,-209606 386185,-281387 156962,-71782 313934,-107678 470896,-107678 26797,0 65082,1920 114847,5739l-442179 2061592c53604,13398 108637,33016 165101,58863 56473,25837 124906,60773 205296,104798 124426,66992 230663,118196 318713,153612 88060,35416 179939,53124 275648,53124 86140,0 166531,-15318 241182,-45945 -15308,139734 -49284,249801 -101928,330202 -52634,80391 -118196,120596 -196677,120596z"/>
  <path id="1" fill="#FFCC00" fill-rule="nonzero" d="M1355243 2141982c-91879,0 -166051,-28717 -222524,-86140 -56473,-57423 -84700,-143563 -84700,-258410 0,-47864 7649,-110067 22967,-186638l195247 -921684 413462 0 -206726 976237c-5749,28717 -8619,55514 -8619,80401 0,78481 28717,117716 86140,117716 53594,0 99538,-22487 137824,-67472 38286,-44985 68912,-106718 91879,-185199l195247 -921684 413462 0 -206726 976237c-7659,28717 -11489,59343 -11489,91879 0,38286 9089,65562 27277,81831 18188,16278 48334,24407 90450,24407 53594,0 100018,-22967 139254,-68912 39245,-45935 70352,-107188 93319,-183759l120596 0c-70832,206736 -158402,346950 -262730,420641 -104318,73701 -209126,110547 -314404,110547 -82310,0 -147873,-22967 -196687,-68912 -48804,-45945 -78001,-113897 -87570,-203856 -65082,105278 -133515,177060 -205296,215345 -71782,38286 -145003,57423 -219655,57423z"/>
  <path id="2" fill="#FFCC00" fill-rule="nonzero" d="M2931581 2141982c-141644,0 -251711,-36846 -330192,-110547 -78491,-73691 -117726,-189028 -117726,-345990 0,-132075 26317,-277558 78961,-436430 52634,-158882 136864,-296226 252671,-412032 115807,-115807 262720,-173710 440739,-173710 114857,0 196687,24877 245502,74651 48814,49764 73212,112937 73212,189498 0,67002 -14348,118686 -43065,155052 -28717,36376 -65082,54554 -109107,54554 -32546,0 -66042,-11479 -100498,-34456 22967,-63163 34456,-119636 34456,-169400 0,-36376 -6699,-65082 -20098,-86140 -13398,-21058 -33496,-31586 -60293,-31586 -57433,0 -114857,46895 -172280,140694 -57423,93799 -104328,207686 -140694,341681 -36366,133995 -54554,254591 -54554,361788 0,93789 16268,157442 48814,190938 32536,33496 85180,50244 157922,50244 103358,0 191898,-23927 265589,-71782 73701,-47854 154572,-120586 242622,-218215l97629 0c-212475,354129 -475675,531189 -789609,531189z"/>
  <path id="3" fill="#FFCC00" fill-rule="nonzero" d="M4034154 2141982c-141644,0 -251711,-36846 -330192,-110547 -78491,-73691 -117726,-189028 -117726,-345990 0,-132075 25837,-277558 77521,-436430 51684,-158882 135914,-296226 252681,-412032 116757,-115807 265109,-173710 445049,-173710 210556,0 315834,91879 315834,275638 0,107198 -30626,205776 -91879,295746 -61253,89970 -142604,162221 -244052,216785 -101458,54554 -209606,85660 -324463,93309 -3830,57433 -5739,95709 -5739,114857 0,93789 16268,157442 48814,190938 32536,33496 85180,50244 157922,50244 103358,0 191898,-23927 265589,-71782 73701,-47854 154572,-120586 242622,-218215l97629 0c-212475,354129 -475675,531189 -789609,531189zm5739 -735055c70832,-3820 138304,-28707 202427,-74651 64133,-45935 115817,-104318 155052,-175150 39245,-70822 58863,-145473 58863,-223954 0,-78481 -23927,-117726 -71782,-117726 -68912,0 -136384,60303 -202427,180889 -66042,120596 -113417,257460 -142134,410593z"/>
  <path id="4" fill="#FFCC00" fill-rule="nonzero" d="M5762664 2141982c-116757,0 -202417,-31106 -256980,-93319 -54554,-62213 -81831,-139254 -81831,-231133 0,-40205 4789,-85660 14358,-136394 9569,-50724 19618,-100008 30147,-147863 10529,-47854 17708,-78481 21538,-91889 15318,-66992 29667,-133035 43075,-198117 13398,-65082 20098,-117716 20098,-157922 0,-97619 -34456,-146433 -103368,-146433 -49774,0 -93799,24407 -132085,73222 -38276,48804 -68912,112457 -91879,190938l-195247 921684 -413462 0 304355 -1435644 413462 0 -31576 149303c95709,-107188 207686,-160791 335941,-160791 97619,0 175140,26807 232573,80401 57423,53594 86140,134944 86140,244062 0,55504 -6709,117236 -20108,185199 -13398,67952 -32536,150743 -57423,248361 -15308,59343 -29187,117246 -41635,173710 -12439,56473 -18658,100978 -18658,133515 0,38286 8609,67962 25837,89010 17228,21058 46895,31586 89010,31586 57423,0 103368,-20578 137824,-61733 34456,-41155 68912,-104798 103368,-190938l120596 0c-70832,210566 -152662,351729 -245502,423511 -92839,71782 -189028,107678 -288567,107678z"/>
  <path id="5" fill="#FFCC00" fill-rule="nonzero" d="M6520687 2141982c-109107,0 -200027,-37326 -272768,-111977 -72742,-74661 -109107,-191418 -109107,-350300 0,-141654 28237,-290476 84700,-446488 56473,-156002 140694,-288087 252671,-396234 111987,-108158 245502,-162231 400554,-162231 78481,0 136864,13398 175140,40195 38286,26807 57433,62213 57433,106238l0 20108 31576 -152182 413472 0 -206736 976237c-7659,28717 -11489,59343 -11489,91879 0,38286 9099,65562 27277,81831 18188,16278 48334,24407 90450,24407 26797,0 47854,-3830 63173,-11479 -42115,107188 -82310,182319 -120596,225394 -38286,43065 -93799,64603 -166541,64603 -78481,0 -142124,-23447 -190938,-70342 -48814,-46905 -78961,-112467 -90440,-196687 -116767,178019 -259380,267029 -427831,267029zm186638 -278518c47854,0 95229,-22487 142124,-67472 46905,-44985 78961,-106718 96189,-185199l137824 -648915c0,-24877 -9569,-49284 -28707,-73212 -19148,-23927 -48814,-35896 -89010,-35896 -76571,0 -145483,44505 -206736,133515 -61253,89010 -109107,196207 -143563,321583 -34456,125386 -51684,235933 -51684,331642 0,95709 13878,156962 41635,183759 27757,26797 61733,40195 101928,40195z"/>
  <polygon fill="#FFCC00" fill-rule="nonzero" points="2591641,3193381 2291005,3193381 2291005,2655403 2591641,2655403 2591641,2714926 2358817,2714926 2358817,2882947 2578072,2882947 2578072,2941720 2358817,2941720 2358817,3133858 2591641,3133858 "/>
  <path id="1" fill="#FFCC00" fill-rule="nonzero" d="M2789798 3193381l-152952 -403863 70822 0 85900 238102c4020,11049 8289,23357 12809,36916 4519,13568 8539,26497 12059,38806 3510,12309 6029,22727 7529,31266l3020 0c2010,-8539 4899,-19088 8659,-31646 3770,-12559 8039,-25617 12809,-39175 4779,-13568 8919,-25617 12439,-36166l85890 -238102 70832 0 -153712 403863 -76101 0z"/>
  <path id="2" fill="#FFCC00" fill-rule="nonzero" d="M3239626 2781989c34656,0 64423,7529 89290,22597 24857,15068 43945,36296 57263,63673 13308,27377 19968,59393 19968,96069l0 39935 -276528 0c1000,45705 12679,80491 35036,104348 22357,23867 53624,35796 93809,35796 25617,0 48344,-2390 68192,-7159 19838,-4769 40305,-11679 61403,-20718l0 58013c-20598,9039 -40935,15698 -61033,19968 -20088,4270 -43955,6409 -71582,6409 -38176,0 -71952,-7789 -101338,-23357 -29387,-15578 -52244,-38806 -68562,-69702 -16328,-30896 -24487,-68692 -24487,-113397 0,-44205 7409,-82131 22227,-113777 14818,-31646 35656,-56004 62533,-73082 26877,-17078 58143,-25617 93809,-25617zm-750 54244c-31646,0 -56643,10179 -74971,30516 -18338,20348 -29267,48604 -32776,84770l205696 0c-500,-34156 -8539,-61913 -24117,-83260 -15568,-21348 -40185,-32026 -73831,-32026z"/>
  <path id="3" fill="#FFCC00" fill-rule="nonzero" d="M3703012 2781989c48224,0 84640,11679 109257,35036 24607,23357 36916,61153 36916,113397l0 262960 -65552 0 0 -258440c0,-64803 -30137,-97199 -90420,-97199 -44705,0 -75591,12559 -92669,37676 -17078,25117 -25617,61283 -25617,108497l0 209466 -66312 0 0 -403863 53504 0 9789 55004 3770 0c13058,-21098 31146,-36796 54254,-47095 23097,-10289 47465,-15438 73082,-15438z"/>
  <path id="4" fill="#FFCC00" fill-rule="nonzero" d="M4109135 3146666c10049,0 20348,-880 30896,-2640 10549,-1760 19088,-3640 25617,-5649l0 50484c-7039,3520 -17078,6399 -30147,8659 -13058,2270 -25617,3400 -37666,3400 -21098,0 -40565,-3650 -58393,-10929 -17838,-7289 -32276,-19968 -43325,-38056 -11059,-18078 -16578,-43445 -16578,-76101l0 -235083 -57263 0 0 -31646 58013 -26367 26377 -85900 39175 0 0 92679 116787 0 0 51234 -116787 0 0 233583c0,24607 5899,42815 17708,54624 11809,11809 26997,17708 45585,17708z"/>
  <path id="5" fill="#FFCC00" fill-rule="nonzero" d="M4597389 2990694c0,66812 -16948,118546 -50854,155222 -33906,36666 -79751,55004 -137514,55004 -35666,0 -67432,-8169 -95309,-24497 -27887,-16318 -49854,-40175 -65932,-71572 -16078,-31396 -24107,-69452 -24107,-114157 0,-66802 16828,-118296 50474,-154462 33656,-36166 79371,-54244 137134,-54244 36676,0 68942,8159 96819,24487 27887,16318 49734,39935 65552,70822 15828,30896 23737,68692 23737,113397zm-305155 0c0,47724 9419,85520 28257,113397 18838,27877 48844,41825 90040,41825 40685,0 70572,-13948 89660,-41825 19088,-27877 28637,-65672 28637,-113397 0,-47714 -9549,-85140 -28637,-112267 -19088,-27127 -49224,-40685 -90410,-40685 -41195,0 -71082,13558 -89670,40685 -18588,27127 -27877,64553 -27877,112267z"/>
  <path id="6" fill="#FFCC00" fill-rule="nonzero" d="M4965086 3081864c0,39185 -14568,68822 -43705,88910 -29137,20098 -68312,30147 -117546,30147 -28127,0 -52364,-2270 -72712,-6789 -20338,-4519 -38296,-10799 -53864,-18838l0 -60273c16068,8039 35536,15448 58393,22227 22847,6779 46085,10169 69692,10169 33656,0 58013,-5399 73092,-16198 15068,-10799 22597,-25237 22597,-43325 0,-10049 -2760,-19088 -8289,-27127 -5519,-8029 -15438,-16068 -29757,-24107 -14318,-8039 -34786,-17078 -61413,-27127 -26117,-10049 -48474,-20088 -67052,-30137 -18588,-10049 -32906,-22107 -42955,-36166 -10039,-14068 -15068,-32146 -15068,-54254 0,-34156 13938,-60523 41815,-79111 27887,-18588 64423,-27877 109637,-27877 24607,0 47595,2380 68942,7159 21348,4769 41315,11419 59903,19958l-22607 52744c-17078,-7029 -34916,-13058 -53494,-18078 -18588,-5029 -37676,-7539 -57263,-7539 -27127,0 -47854,4399 -62163,13188 -14318,8789 -21478,20718 -21478,35786 0,11059 3270,20478 9799,28257 6529,7789 17448,15318 32776,22607 15318,7279 35786,15948 61403,25997 25617,9539 47475,19338 65552,29387 18088,10039 31896,22227 41445,36536 9539,14318 14318,32276 14318,53874z"/>
  <path id="7" fill="#FFCC00" fill-rule="nonzero" d="M5475187 2781989c34656,0 64423,7529 89290,22597 24857,15068 43945,36296 57263,63673 13308,27377 19968,59393 19968,96069l0 39935 -276528 0c1000,45705 12679,80491 35036,104348 22357,23867 53624,35796 93809,35796 25617,0 48344,-2390 68192,-7159 19838,-4769 40305,-11679 61403,-20718l0 58013c-20598,9039 -40935,15698 -61033,19968 -20088,4270 -43955,6409 -71582,6409 -38176,0 -71952,-7789 -101338,-23357 -29387,-15578 -52244,-38806 -68562,-69702 -16328,-30896 -24487,-68692 -24487,-113397 0,-44205 7409,-82131 22227,-113777 14818,-31646 35656,-56004 62533,-73082 26877,-17078 58143,-25617 93809,-25617zm-750 54244c-31646,0 -56643,10179 -74971,30516 -18338,20348 -29267,48604 -32776,84770l205696 0c-500,-34156 -8539,-61913 -24117,-83260 -15568,-21348 -40185,-32026 -73831,-32026z"/>
  <path id="8" fill="#FFCC00" fill-rule="nonzero" d="M6346957 3193381l-64803 -166521 -213225 0 -64053 166521 -68562 0 210216 -540238 61033 0 209466 540238 -70072 0zm-145423 -389545c-1500,-4020 -4020,-11299 -7529,-21847 -3520,-10549 -6909,-21478 -10179,-32776 -3260,-11309 -5899,-19968 -7909,-25997 -3510,15568 -7529,30766 -12049,45585 -4529,14818 -8289,26497 -11309,35036l-61033 162751 170290 0 -60283 -162751z"/>
  <path id="9" fill="#FFCC00" fill-rule="nonzero" d="M6616695 3146666c10049,0 20348,-880 30896,-2640 10549,-1760 19088,-3640 25617,-5649l0 50484c-7039,3520 -17078,6399 -30147,8659 -13058,2270 -25617,3400 -37666,3400 -21098,0 -40565,-3650 -58393,-10929 -17838,-7289 -32276,-19968 -43325,-38056 -11059,-18078 -16578,-43445 -16578,-76101l0 -235083 -57263 0 0 -31646 58013 -26367 26377 -85900 39175 0 0 92679 116787 0 0 51234 -116787 0 0 233583c0,24607 5899,42815 17708,54624 11809,11809 26997,17708 45585,17708z"/>
  <path id="10" fill="#FFCC00" fill-rule="nonzero" d="M6787736 2638075c10049,0 18968,3390 26747,10169 7789,6779 11679,17458 11679,32026 0,14058 -3890,24607 -11679,31646 -7779,7029 -16698,10539 -26747,10539 -11049,0 -20338,-3510 -27877,-10539 -7529,-7039 -11299,-17588 -11299,-31646 0,-14568 3770,-25247 11299,-32026 7539,-6779 16828,-10169 27877,-10169zm32406 151443l0 403863 -66312 0 0 -403863 66312 0z"/>
  <path id="11" fill="#FFCC00" fill-rule="nonzero" d="M7037137 3193381l-152952 -403863 70822 0 85900 238102c4020,11049 8289,23357 12809,36916 4519,13568 8539,26497 12059,38806 3510,12309 6029,22727 7529,31266l3020 0c2010,-8539 4899,-19088 8659,-31646 3770,-12559 8039,-25617 12809,-39175 4779,-13568 8919,-25617 12439,-36166l85890 -238102 70832 0 -153712 403863 -76101 0z"/>
  <path id="12" fill="#FFCC00" fill-rule="nonzero" d="M7483955 2782738c49224,0 85640,10799 109247,32396 23607,21598 35416,56014 35416,103228l0 275018 -48224 0 -12809 -57263 -3010 0c-17588,22097 -36046,38426 -55384,48974 -19338,10549 -46085,15828 -80241,15828 -36676,0 -67062,-9679 -91179,-29017 -24107,-19338 -36166,-49604 -36166,-90790 0,-40185 15828,-71202 47475,-93059 31646,-21847 80371,-33776 146173,-35786l68562 -2260 0 -24107c0,-33656 -7279,-57013 -21847,-70072 -14568,-13068 -35166,-19598 -61783,-19598 -21098,0 -41195,3140 -60283,9419 -19088,6279 -36916,13438 -53494,21478l-20348 -49734c17588,-9539 38436,-17708 62543,-24487 24107,-6779 49224,-10169 75351,-10169zm19588 215495c-50234,2010 -85020,10049 -104358,24107 -19338,14068 -29007,33906 -29007,59523 0,22607 6909,39185 20718,49734 13818,10549 31516,15818 53124,15818 34156,0 62533,-9419 85140,-28257 22607,-18828 33906,-47844 33906,-87020l0 -36166 -59523 2260z"/>
  <path id="13" fill="#FFCC00" fill-rule="nonzero" d="M7915695 3200920c-35666,0 -67442,-7289 -95319,-21857 -27877,-14568 -49724,-37166 -65552,-67812 -15818,-30636 -23727,-69822 -23727,-117536 0,-49734 8279,-90170 24857,-121316 16578,-31136 39055,-53994 67442,-68562 28377,-14568 60653,-21847 96819,-21847 20598,0 40435,2130 59523,6399 19088,4270 34656,9419 46715,15448l-20338 55004c-12059,-4519 -26127,-8789 -42195,-12809 -16078,-4020 -31146,-6029 -45215,-6029 -79361,0 -119046,50984 -119046,152952 0,48724 9669,86020 29007,111897 19338,25867 48094,38806 86270,38806 22107,0 41575,-2270 58403,-6789 16818,-4519 32266,-10039 46335,-16578l0 58773c-13558,7039 -28507,12439 -44835,16198 -16318,3770 -36036,5659 -59143,5659zm61783 97189c0,24117 -9289,42825 -27877,56144 -18588,13308 -46465,19958 -83640,19958 -16068,0 -28627,-1250 -37666,-3760l0 -41445c4519,1010 10539,1880 18078,2640 7539,750 14818,1130 21847,1130 18088,0 31896,-2390 41445,-7159 9539,-4769 14318,-13438 14318,-25997 0,-13058 -6659,-22597 -19968,-28627 -13318,-6029 -29517,-10299 -48604,-12809l32406 -64803 43695 0 -19588 39935c18088,4020 33526,11049 46335,21098 12809,10049 19218,24607 19218,43695z"/>
  <path id="14" fill="#FFCC00" fill-rule="nonzero" d="M8466482 2990694c0,66812 -16948,118546 -50854,155222 -33906,36666 -79751,55004 -137514,55004 -35666,0 -67432,-8169 -95309,-24497 -27887,-16318 -49854,-40175 -65932,-71572 -16078,-31396 -24107,-69452 -24107,-114157 0,-66802 16828,-118296 50474,-154462 33656,-36166 79371,-54244 137134,-54244 36676,0 68942,8159 96819,24487 27887,16318 49734,39935 65552,70822 15828,30896 23737,68692 23737,113397zm-305155 0c0,47724 9419,85520 28257,113397 18838,27877 48844,41825 90040,41825 40685,0 70572,-13948 89660,-41825 19088,-27877 28637,-65672 28637,-113397 0,-47714 -9549,-85140 -28637,-112267 -19088,-27127 -49224,-40685 -90410,-40685 -41195,0 -71082,13558 -89670,40685 -18588,27127 -27877,64553 -27877,112267zm-19588 -253921c3010,-29637 11679,-53114 25997,-70452 14308,-17328 33276,-25987 56883,-25987 15068,0 29257,3640 42565,10919 13318,7289 25997,14448 38056,21478 12059,7029 23357,10549 33906,10549 11549,0 20468,-3640 26747,-10929 6279,-7279 11179,-18208 14698,-32776l37666 0c-3010,29137 -11549,52494 -25617,70072 -14058,17588 -32896,26377 -56503,26377 -14068,0 -27757,-3520 -41065,-10549 -13318,-7029 -26127,-14188 -38426,-21478 -12309,-7279 -23987,-10919 -35046,-10919 -12049,0 -21098,3640 -27117,10919 -6029,7289 -10799,18208 -14318,32776l-38426 0z"/>
  <path id="15" fill="#FFCC00" fill-rule="nonzero" d="M8727182 2781989c34656,0 64423,7529 89290,22597 24857,15068 43945,36296 57263,63673 13308,27377 19968,59393 19968,96069l0 39935 -276528 0c1000,45705 12679,80491 35036,104348 22357,23867 53624,35796 93809,35796 25617,0 48344,-2390 68192,-7159 19838,-4769 40305,-11679 61403,-20718l0 58013c-20598,9039 -40935,15698 -61033,19968 -20088,4270 -43955,6409 -71582,6409 -38176,0 -71952,-7789 -101338,-23357 -29387,-15578 -52244,-38806 -68562,-69702 -16328,-30896 -24487,-68692 -24487,-113397 0,-44205 7409,-82131 22227,-113777 14818,-31646 35656,-56004 62533,-73082 26877,-17078 58143,-25617 93809,-25617zm-750 54244c-31646,0 -56643,10179 -74971,30516 -18338,20348 -29267,48604 -32776,84770l205696 0c-500,-34156 -8539,-61913 -24117,-83260 -15568,-21348 -40185,-32026 -73831,-32026z"/>
  <path id="16" fill="#FFCC00" fill-rule="nonzero" d="M9259140 3081864c0,39185 -14568,68822 -43705,88910 -29137,20098 -68312,30147 -117546,30147 -28127,0 -52364,-2270 -72712,-6789 -20338,-4519 -38296,-10799 -53864,-18838l0 -60273c16068,8039 35536,15448 58393,22227 22847,6779 46085,10169 69692,10169 33656,0 58013,-5399 73092,-16198 15068,-10799 22597,-25237 22597,-43325 0,-10049 -2760,-19088 -8289,-27127 -5519,-8029 -15438,-16068 -29757,-24107 -14318,-8039 -34786,-17078 -61413,-27127 -26117,-10049 -48474,-20088 -67052,-30137 -18588,-10049 -32906,-22107 -42955,-36166 -10039,-14068 -15068,-32146 -15068,-54254 0,-34156 13938,-60523 41815,-79111 27887,-18588 64423,-27877 109637,-27877 24607,0 47595,2380 68942,7159 21348,4769 41315,11419 59903,19958l-22607 52744c-17078,-7029 -34916,-13058 -53494,-18078 -18588,-5029 -37676,-7539 -57263,-7539 -27127,0 -47854,4399 -62163,13188 -14318,8789 -21478,20718 -21478,35786 0,11059 3270,20478 9799,28257 6529,7789 17448,15318 32776,22607 15318,7279 35786,15948 61403,25997 25617,9539 47475,19338 65552,29387 18088,10039 31896,22227 41445,36536 9539,14318 14318,32276 14318,53874z"/>
 </g>
</svg>
